<svg xmlns="http://www.w3.org/2000/svg" xmlns:xlink="http://www.w3.org/1999/xlink" width="250" zoomAndPan="magnify" viewBox="0 0 187.5 149.999998" height="200" preserveAspectRatio="xMidYMid meet" version="1.0"><defs><g/><clipPath id="a90c8739e3"><rect x="0" width="185" y="0" height="80"/></clipPath><clipPath id="21663a2743"><path d="M 58.175781 64.574219 L 128.488281 64.574219 L 128.488281 134.886719 L 58.175781 134.886719 Z M 58.175781 64.574219 " clip-rule="nonzero"/></clipPath></defs><g transform="matrix(1, 0, 0, 1, 1, 4)"><g clip-path="url(#a90c8739e3)"><g fill="#382920" fill-opacity="1"><g transform="translate(22.204714, 68.796267)"><g><path d="M 16.359375 -23.875 C 17.328125 -24.414062 18.210938 -24.597656 19.015625 -24.421875 C 19.828125 -24.242188 20.519531 -23.828125 21.09375 -23.171875 C 21.664062 -22.523438 22.039062 -21.757812 22.21875 -20.875 C 22.394531 -19.988281 22.320312 -19.113281 22 -18.25 C 21.6875 -17.394531 21.066406 -16.703125 20.140625 -16.171875 C 17.628906 -14.722656 15.234375 -13.140625 12.953125 -11.421875 C 10.671875 -9.710938 8.453125 -7.890625 6.296875 -5.953125 C 5.679688 -5.390625 4.910156 -5.0625 3.984375 -4.96875 C 3.054688 -4.875 2.179688 -5.015625 1.359375 -5.390625 C 0.535156 -5.773438 -0.0507812 -6.421875 -0.40625 -7.328125 C -1.945312 -11.515625 -3.503906 -15.707031 -5.078125 -19.90625 C -6.648438 -24.101562 -8.226562 -28.289062 -9.8125 -32.46875 C -10.175781 -33.476562 -10.210938 -34.425781 -9.921875 -35.3125 C -9.640625 -36.195312 -9.148438 -36.925781 -8.453125 -37.5 C -7.753906 -38.082031 -6.988281 -38.457031 -6.15625 -38.625 C -5.332031 -38.789062 -4.546875 -38.695312 -3.796875 -38.34375 C -3.046875 -38 -2.484375 -37.300781 -2.109375 -36.25 C -0.847656 -32.914062 0.398438 -29.585938 1.640625 -26.265625 C 2.878906 -22.953125 4.113281 -19.648438 5.34375 -16.359375 C 8.8125 -19.078125 12.484375 -21.582031 16.359375 -23.875 Z M 16.359375 -23.875 "/></g></g></g><g fill="#382920" fill-opacity="1"><g transform="translate(45.197891, 56.471636)"><g><path d="M 22.46875 -42.78125 C 23.695312 -41.539062 24.691406 -40.0625 25.453125 -38.34375 C 26.210938 -36.625 26.796875 -34.84375 27.203125 -33 C 27.609375 -31.15625 27.867188 -29.40625 27.984375 -27.75 C 28.191406 -25.226562 27.984375 -22.734375 27.359375 -20.265625 C 26.734375 -17.804688 25.648438 -15.550781 24.109375 -13.5 C 22.617188 -11.539062 20.734375 -9.914062 18.453125 -8.625 C 16.171875 -7.34375 13.773438 -6.796875 11.265625 -6.984375 C 9.585938 -7.085938 8.039062 -7.554688 6.625 -8.390625 C 5.207031 -9.222656 3.941406 -10.265625 2.828125 -11.515625 C 1.722656 -12.765625 0.804688 -14.082031 0.078125 -15.46875 C -0.753906 -16.988281 -1.460938 -18.804688 -2.046875 -20.921875 C -2.628906 -23.035156 -3 -25.25 -3.15625 -27.5625 C -3.3125 -29.875 -3.191406 -32.09375 -2.796875 -34.21875 C -2.398438 -36.351562 -1.628906 -38.222656 -0.484375 -39.828125 C 0.628906 -41.703125 2.144531 -43.195312 4.0625 -44.3125 C 5.988281 -45.4375 8.066406 -46.15625 10.296875 -46.46875 C 12.535156 -46.789062 14.726562 -46.648438 16.875 -46.046875 C 19.019531 -45.441406 20.882812 -44.351562 22.46875 -42.78125 Z M 17.515625 -18.734375 C 18.484375 -20.222656 19.085938 -21.828125 19.328125 -23.546875 C 19.566406 -25.273438 19.550781 -27.015625 19.28125 -28.765625 C 19.019531 -30.523438 18.585938 -32.191406 17.984375 -33.765625 C 17.359375 -35.347656 16.394531 -36.53125 15.09375 -37.3125 C 13.800781 -38.101562 12.289062 -38.269531 10.5625 -37.8125 C 9.59375 -37.582031 8.710938 -37.117188 7.921875 -36.421875 C 7.128906 -35.734375 6.53125 -34.925781 6.125 -34 C 5.675781 -32.914062 5.457031 -31.6875 5.46875 -30.3125 C 5.476562 -28.945312 5.539062 -27.691406 5.65625 -26.546875 C 5.914062 -23.984375 6.628906 -21.566406 7.796875 -19.296875 C 8.140625 -18.640625 8.554688 -17.992188 9.046875 -17.359375 C 9.535156 -16.734375 10.128906 -16.269531 10.828125 -15.96875 C 11.960938 -15.488281 13.125 -15.5 14.3125 -16 C 15.5 -16.507812 16.460938 -17.257812 17.203125 -18.25 C 17.285156 -18.394531 17.390625 -18.554688 17.515625 -18.734375 Z M 17.515625 -18.734375 "/></g></g></g><g fill="#382920" fill-opacity="1"><g transform="translate(74.85305, 48.654324)"><g><path d="M 26.015625 -23.8125 C 28.566406 -23.832031 30.523438 -23.210938 31.890625 -21.953125 C 33.265625 -20.703125 33.890625 -18.765625 33.765625 -16.140625 C 33.671875 -13.890625 33.078125 -11.71875 31.984375 -9.625 C 30.898438 -7.53125 29.425781 -5.835938 27.5625 -4.546875 C 25.488281 -3.097656 23.242188 -2.347656 20.828125 -2.296875 C 18.410156 -2.253906 16.046875 -2.554688 13.734375 -3.203125 C 10.910156 -4.015625 8.660156 -5.28125 6.984375 -7 C 5.316406 -8.71875 4.171875 -10.710938 3.546875 -12.984375 C 2.929688 -15.265625 2.75 -17.664062 3 -20.1875 C 3.257812 -22.71875 3.894531 -25.210938 4.90625 -27.671875 C 5.925781 -30.128906 7.238281 -32.398438 8.84375 -34.484375 C 10.445312 -36.578125 12.289062 -38.332031 14.375 -39.75 C 16.457031 -41.175781 18.707031 -42.09375 21.125 -42.5 C 23.539062 -42.914062 26.023438 -42.6875 28.578125 -41.8125 C 29.648438 -41.414062 30.410156 -40.835938 30.859375 -40.078125 C 31.304688 -39.316406 31.519531 -38.488281 31.5 -37.59375 C 31.488281 -36.695312 31.269531 -35.867188 30.84375 -35.109375 C 30.414062 -34.347656 29.8125 -33.804688 29.03125 -33.484375 C 28.25 -33.160156 27.347656 -33.171875 26.328125 -33.515625 C 24.503906 -34.171875 22.742188 -34.175781 21.046875 -33.53125 C 19.347656 -32.894531 17.800781 -31.84375 16.40625 -30.375 C 15.007812 -28.914062 13.867188 -27.234375 12.984375 -25.328125 C 12.097656 -23.429688 11.554688 -21.53125 11.359375 -19.625 C 11.171875 -17.71875 11.4375 -16.023438 12.15625 -14.546875 C 12.570312 -13.628906 13.242188 -12.863281 14.171875 -12.25 C 15.109375 -11.632812 16.15625 -11.195312 17.3125 -10.9375 C 18.476562 -10.6875 19.601562 -10.65625 20.6875 -10.84375 C 21.769531 -11.039062 22.675781 -11.5 23.40625 -12.21875 C 23.9375 -12.738281 24.378906 -13.398438 24.734375 -14.203125 C 24.765625 -14.316406 24.789062 -14.46875 24.8125 -14.65625 C 24.832031 -14.851562 24.863281 -15.046875 24.90625 -15.234375 C 24.863281 -15.234375 24.8125 -15.234375 24.75 -15.234375 C 24.695312 -15.234375 24.65625 -15.234375 24.625 -15.234375 C 24.46875 -15.191406 24.320312 -15.179688 24.1875 -15.203125 C 24.050781 -15.222656 23.910156 -15.238281 23.765625 -15.25 C 23.109375 -14.5625 22.265625 -14.125 21.234375 -13.9375 C 20.210938 -13.75 19.21875 -13.875 18.25 -14.3125 C 17.28125 -14.757812 16.582031 -15.59375 16.15625 -16.8125 C 15.59375 -18.445312 15.578125 -19.726562 16.109375 -20.65625 C 16.648438 -21.59375 17.5 -22.285156 18.65625 -22.734375 C 19.820312 -23.191406 21.082031 -23.484375 22.4375 -23.609375 C 23.800781 -23.742188 24.992188 -23.8125 26.015625 -23.8125 Z M 26.015625 -23.8125 "/></g></g></g><g fill="#382920" fill-opacity="1"><g transform="translate(106.07544, 49.106727)"><g/></g></g><g fill="#382920" fill-opacity="1"><g transform="translate(119.16411, 51.183225)"><g><path d="M 14.765625 -32.46875 C 15.171875 -33.46875 15.773438 -34.195312 16.578125 -34.65625 C 17.390625 -35.125 18.242188 -35.34375 19.140625 -35.3125 C 20.035156 -35.28125 20.859375 -35.046875 21.609375 -34.609375 C 22.367188 -34.179688 22.894531 -33.585938 23.1875 -32.828125 C 23.488281 -32.066406 23.4375 -31.171875 23.03125 -30.140625 C 19.164062 -20.503906 15.535156 -10.785156 12.140625 -0.984375 C 11.773438 0.0546875 11.207031 0.804688 10.4375 1.265625 C 9.675781 1.722656 8.847656 1.945312 7.953125 1.9375 C 7.066406 1.9375 6.253906 1.707031 5.515625 1.25 C 4.773438 0.800781 4.226562 0.191406 3.875 -0.578125 C 3.519531 -1.347656 3.523438 -2.253906 3.890625 -3.296875 C 7.285156 -13.109375 10.910156 -22.832031 14.765625 -32.46875 Z M 14.765625 -32.46875 "/></g></g></g><g fill="#382920" fill-opacity="1"><g transform="translate(130.803488, 53.162262)"><g><path d="M 37.546875 -20.625 C 38.148438 -21.550781 38.851562 -22.097656 39.65625 -22.265625 C 40.457031 -22.441406 41.238281 -22.335938 42 -21.953125 C 42.769531 -21.566406 43.421875 -21.003906 43.953125 -20.265625 C 44.484375 -19.535156 44.78125 -18.703125 44.84375 -17.765625 C 44.914062 -16.835938 44.65625 -15.921875 44.0625 -15.015625 C 38.144531 -6.179688 31.925781 2.425781 25.40625 10.8125 C 24.882812 11.488281 24.207031 11.921875 23.375 12.109375 C 22.550781 12.304688 21.710938 12.28125 20.859375 12.03125 C 20.015625 11.78125 19.304688 11.34375 18.734375 10.71875 C 18.160156 10.09375 17.882812 9.3125 17.90625 8.375 C 18.007812 6.113281 18.09375 3.851562 18.15625 1.59375 C 18.21875 -0.664062 18.28125 -2.945312 18.34375 -5.25 C 16.757812 -3.25 15.195312 -1.238281 13.65625 0.78125 C 12.113281 2.8125 10.59375 4.867188 9.09375 6.953125 C 8.46875 7.828125 7.738281 8.34375 6.90625 8.5 C 6.082031 8.65625 5.28125 8.550781 4.5 8.1875 C 3.71875 7.820312 3.070312 7.265625 2.5625 6.515625 C 2.0625 5.773438 1.78125 4.945312 1.71875 4.03125 C 1.664062 3.125 1.972656 2.234375 2.640625 1.359375 C 8.023438 -6.109375 13.722656 -13.351562 19.734375 -20.375 C 20.296875 -21.039062 21 -21.46875 21.84375 -21.65625 C 22.695312 -21.84375 23.539062 -21.820312 24.375 -21.59375 C 25.21875 -21.363281 25.914062 -20.941406 26.46875 -20.328125 C 27.019531 -19.710938 27.28125 -18.925781 27.25 -17.96875 L 26.84375 -5.328125 C 28.695312 -7.828125 30.507812 -10.351562 32.28125 -12.90625 C 34.0625 -15.46875 35.816406 -18.039062 37.546875 -20.625 Z M 37.546875 -20.625 "/></g></g></g></g></g><g clip-path="url(#21663a2743)"><path fill="#f37f22" d="M 93.496094 64.574219 C 74.019531 64.574219 58.175781 80.417969 58.175781 99.894531 C 58.175781 119.367188 74.019531 135.214844 93.496094 135.214844 C 112.972656 135.214844 128.816406 119.367188 128.816406 99.894531 C 128.816406 80.417969 112.972656 64.574219 93.496094 64.574219 Z M 88.832031 99.894531 C 88.832031 103 90.667969 110.066406 90.667969 116.847656 C 90.667969 123.628906 88.269531 125.324219 86.429688 125.324219 C 84.59375 125.324219 82.191406 124.050781 82.191406 116.847656 C 82.191406 109.640625 84.03125 103 84.03125 99.894531 C 84.03125 96.785156 77.953125 97.914062 77.953125 90.003906 C 77.953125 82.941406 79.085938 75.875 79.085938 75.875 C 79.085938 75.875 79.851562 75.1875 82.191406 74.769531 L 82.191406 88.589844 C 82.191406 89.371094 82.824219 90.003906 83.605469 90.003906 C 84.386719 90.003906 85.019531 89.371094 85.019531 88.589844 L 85.019531 74.605469 C 85.019531 74.5625 85 74.527344 84.996094 74.488281 C 85.359375 74.472656 85.742188 74.464844 86.148438 74.464844 C 86.765625 74.464844 87.332031 74.484375 87.863281 74.515625 C 87.859375 74.546875 87.84375 74.574219 87.84375 74.605469 L 87.84375 88.589844 C 87.84375 89.371094 88.476562 90.003906 89.257812 90.003906 C 90.035156 90.003906 90.667969 89.371094 90.667969 88.589844 L 90.667969 74.859375 C 92.785156 75.277344 93.636719 75.875 93.636719 75.875 C 93.636719 75.875 94.910156 85.339844 94.910156 90.003906 C 94.910156 98.058594 88.832031 96.785156 88.832031 99.894531 Z M 106.210938 115.433594 C 106.210938 119.671875 105.503906 125.324219 103.386719 125.324219 C 101.265625 125.324219 100.558594 122.214844 100.558594 115.433594 C 100.558594 110.914062 100.558594 74.464844 100.558594 74.464844 C 107.765625 77.996094 109.035156 85.484375 109.035156 89.15625 C 109.035156 95.371094 104.796875 100.601562 104.796875 104.695312 C 104.796875 107.097656 106.210938 109.78125 106.210938 115.433594 Z M 106.210938 115.433594 " fill-opacity="1" fill-rule="nonzero"/></g></svg>