<svg xmlns="http://www.w3.org/2000/svg" xmlns:xlink="http://www.w3.org/1999/xlink" width="50" zoomAndPan="magnify" viewBox="0 0 37.5 37.499999" height="50" preserveAspectRatio="xMidYMid meet" version="1.0"><defs><clipPath id="c9d3d2e2e6"><path d="M 1.15625 1.15625 L 35.941406 1.15625 L 35.941406 35.941406 L 1.15625 35.941406 Z M 1.15625 1.15625 " clip-rule="nonzero"/></clipPath></defs><g clip-path="url(#c9d3d2e2e6)"><path fill="#ff862f" d="M 18.503906 1.15625 C 8.9375 1.15625 1.15625 8.9375 1.15625 18.503906 C 1.15625 28.066406 8.9375 35.851562 18.503906 35.851562 C 28.066406 35.851562 35.851562 28.066406 35.851562 18.503906 C 35.851562 8.9375 28.066406 1.15625 18.503906 1.15625 Z M 16.214844 18.503906 C 16.214844 20.03125 17.117188 23.5 17.117188 26.828125 C 17.117188 30.160156 15.9375 30.992188 15.035156 30.992188 C 14.132812 30.992188 12.953125 30.367188 12.953125 26.828125 C 12.953125 23.289062 13.855469 20.03125 13.855469 18.503906 C 13.855469 16.976562 10.871094 17.53125 10.871094 13.644531 C 10.871094 10.175781 11.425781 6.707031 11.425781 6.707031 C 11.425781 6.707031 11.800781 6.367188 12.953125 6.164062 L 12.953125 12.953125 C 12.953125 13.335938 13.261719 13.644531 13.644531 13.644531 C 14.027344 13.644531 14.339844 13.335938 14.339844 12.953125 L 14.339844 6.082031 C 14.339844 6.0625 14.328125 6.046875 14.328125 6.023438 C 14.507812 6.019531 14.695312 6.011719 14.894531 6.011719 C 15.199219 6.011719 15.476562 6.023438 15.738281 6.039062 C 15.734375 6.054688 15.726562 6.066406 15.726562 6.082031 L 15.726562 12.953125 C 15.726562 13.335938 16.039062 13.644531 16.421875 13.644531 C 16.804688 13.644531 17.117188 13.335938 17.117188 12.953125 L 17.117188 6.207031 C 18.15625 6.414062 18.574219 6.707031 18.574219 6.707031 C 18.574219 6.707031 19.195312 11.355469 19.195312 13.644531 C 19.195312 17.601562 16.214844 16.976562 16.214844 18.503906 Z M 24.746094 26.136719 C 24.746094 28.21875 24.402344 30.992188 23.359375 30.992188 C 22.320312 30.992188 21.972656 29.464844 21.972656 26.136719 C 21.972656 23.914062 21.972656 6.011719 21.972656 6.011719 C 25.511719 7.746094 26.136719 11.425781 26.136719 13.230469 C 26.136719 16.28125 24.054688 18.851562 24.054688 20.863281 C 24.054688 22.042969 24.746094 23.359375 24.746094 26.136719 Z M 24.746094 26.136719 " fill-opacity="1" fill-rule="nonzero"/><path fill="#ff862f" d="M 18.503906 1.15625 C 8.9375 1.15625 1.15625 8.9375 1.15625 18.503906 C 1.15625 28.066406 8.9375 35.851562 18.503906 35.851562 C 28.066406 35.851562 35.851562 28.066406 35.851562 18.503906 C 35.851562 8.9375 28.066406 1.15625 18.503906 1.15625 Z M 16.214844 18.503906 C 16.214844 20.03125 17.117188 23.5 17.117188 26.828125 C 17.117188 30.160156 15.9375 30.992188 15.035156 30.992188 C 14.132812 30.992188 12.953125 30.367188 12.953125 26.828125 C 12.953125 23.289062 13.855469 20.03125 13.855469 18.503906 C 13.855469 16.976562 10.871094 17.53125 10.871094 13.644531 C 10.871094 10.175781 11.425781 6.707031 11.425781 6.707031 C 11.425781 6.707031 11.800781 6.367188 12.953125 6.164062 L 12.953125 12.953125 C 12.953125 13.335938 13.261719 13.644531 13.644531 13.644531 C 14.027344 13.644531 14.339844 13.335938 14.339844 12.953125 L 14.339844 6.082031 C 14.339844 6.0625 14.328125 6.046875 14.328125 6.023438 C 14.507812 6.019531 14.695312 6.011719 14.894531 6.011719 C 15.199219 6.011719 15.476562 6.023438 15.738281 6.039062 C 15.734375 6.054688 15.726562 6.066406 15.726562 6.082031 L 15.726562 12.953125 C 15.726562 13.335938 16.039062 13.644531 16.421875 13.644531 C 16.804688 13.644531 17.117188 13.335938 17.117188 12.953125 L 17.117188 6.207031 C 18.15625 6.414062 18.574219 6.707031 18.574219 6.707031 C 18.574219 6.707031 19.195312 11.355469 19.195312 13.644531 C 19.195312 17.601562 16.214844 16.976562 16.214844 18.503906 Z M 24.746094 26.136719 C 24.746094 28.21875 24.402344 30.992188 23.359375 30.992188 C 22.320312 30.992188 21.972656 29.464844 21.972656 26.136719 C 21.972656 23.914062 21.972656 6.011719 21.972656 6.011719 C 25.511719 7.746094 26.136719 11.425781 26.136719 13.230469 C 26.136719 16.28125 24.054688 18.851562 24.054688 20.863281 C 24.054688 22.042969 24.746094 23.359375 24.746094 26.136719 Z M 24.746094 26.136719 " fill-opacity="1" fill-rule="nonzero"/></g></svg>