<svg xmlns="http://www.w3.org/2000/svg" xmlns:xlink="http://www.w3.org/1999/xlink" width="400" zoomAndPan="magnify" viewBox="0 0 300 74.999997" height="100" preserveAspectRatio="xMidYMid meet" version="1.0"><defs><g/><clipPath id="349071a65b"><path d="M 2.390625 5.277344 L 66.890625 5.277344 L 66.890625 69.777344 L 2.390625 69.777344 Z M 2.390625 5.277344 " clip-rule="nonzero"/></clipPath><clipPath id="baa51ffecb"><rect x="0" width="211" y="0" height="52"/></clipPath></defs><rect x="-30" width="360" fill="#ffffff" y="-7.5" height="89.999996" fill-opacity="1"/><rect x="-30" width="360" fill="#ffffff" y="-7.5" height="89.999996" fill-opacity="1"/><g clip-path="url(#349071a65b)"><path fill="#ff862f" d="M 34.613281 5.277344 C 16.847656 5.277344 2.390625 19.734375 2.390625 37.5 C 2.390625 55.265625 16.847656 69.71875 34.613281 69.71875 C 52.378906 69.71875 66.832031 55.265625 66.832031 37.5 C 66.832031 19.734375 52.378906 5.277344 34.613281 5.277344 Z M 30.359375 37.5 C 30.359375 40.335938 32.035156 46.777344 32.035156 52.964844 C 32.035156 59.152344 29.84375 60.699219 28.167969 60.699219 C 26.492188 60.699219 24.300781 59.539062 24.300781 52.964844 C 24.300781 46.390625 25.976562 40.335938 25.976562 37.5 C 25.976562 34.664062 20.433594 35.695312 20.433594 28.476562 C 20.433594 22.035156 21.464844 15.589844 21.464844 15.589844 C 21.464844 15.589844 22.164062 14.960938 24.300781 14.582031 L 24.300781 27.1875 C 24.300781 27.898438 24.878906 28.476562 25.589844 28.476562 C 26.300781 28.476562 26.878906 27.898438 26.878906 27.1875 L 26.878906 14.429688 C 26.878906 14.390625 26.863281 14.359375 26.859375 14.324219 C 27.191406 14.308594 27.539062 14.300781 27.910156 14.300781 C 28.472656 14.300781 28.988281 14.320312 29.472656 14.347656 C 29.472656 14.375 29.457031 14.402344 29.457031 14.429688 L 29.457031 27.1875 C 29.457031 27.898438 30.035156 28.476562 30.746094 28.476562 C 31.457031 28.476562 32.035156 27.898438 32.035156 27.1875 L 32.035156 14.660156 C 33.964844 15.042969 34.742188 15.589844 34.742188 15.589844 C 34.742188 15.589844 35.902344 24.222656 35.902344 28.476562 C 35.902344 35.824219 30.359375 34.664062 30.359375 37.5 Z M 46.210938 51.675781 C 46.210938 55.542969 45.566406 60.699219 43.632812 60.699219 C 41.699219 60.699219 41.054688 57.863281 41.054688 51.675781 C 41.054688 47.550781 41.054688 14.300781 41.054688 14.300781 C 47.628906 17.523438 48.789062 24.351562 48.789062 27.703125 C 48.789062 33.375 44.921875 38.144531 44.921875 41.882812 C 44.921875 44.074219 46.210938 46.519531 46.210938 51.675781 Z M 46.210938 51.675781 " fill-opacity="1" fill-rule="nonzero"/></g><g transform="matrix(1, 0, 0, 1, 89, 19)"><g clip-path="url(#baa51ffecb)"><g fill="#382920" fill-opacity="1"><g transform="translate(0.957433, 36.904261)"><g><path d="M 21.90625 -33.65625 L 21.90625 -26.921875 L 10.125 -26.921875 L 10.125 -20.234375 L 21.015625 -20.234375 L 21.015625 -13.5 L 10.125 -13.5 L 10.125 0 L 2.453125 0 L 2.453125 -33.65625 Z M 21.90625 -33.65625 "/></g></g></g><g fill="#382920" fill-opacity="1"><g transform="translate(19.924465, 36.904261)"><g><path d="M 4.421875 -2.484375 C 2.097656 -4.554688 0.9375 -7.207031 0.9375 -10.4375 C 0.9375 -13.675781 2.144531 -16.335938 4.5625 -18.421875 C 6.988281 -20.503906 9.984375 -21.546875 13.546875 -21.546875 C 17.054688 -21.546875 20.015625 -20.5 22.421875 -18.40625 C 24.828125 -16.3125 26.03125 -13.65625 26.03125 -10.4375 C 26.03125 -7.226562 24.851562 -4.582031 22.5 -2.5 C 20.144531 -0.425781 17.160156 0.609375 13.546875 0.609375 C 9.796875 0.609375 6.753906 -0.421875 4.421875 -2.484375 Z M 10.015625 -13.984375 C 9.078125 -13.066406 8.609375 -11.882812 8.609375 -10.4375 C 8.609375 -9 9.054688 -7.820312 9.953125 -6.90625 C 10.847656 -6 12.03125 -5.546875 13.5 -5.546875 C 14.914062 -5.546875 16.078125 -6.007812 16.984375 -6.9375 C 17.898438 -7.863281 18.359375 -9.03125 18.359375 -10.4375 C 18.359375 -11.882812 17.890625 -13.066406 16.953125 -13.984375 C 16.015625 -14.910156 14.863281 -15.375 13.5 -15.375 C 12.113281 -15.375 10.953125 -14.910156 10.015625 -13.984375 Z M 10.015625 -13.984375 "/></g></g></g><g fill="#382920" fill-opacity="1"><g transform="translate(44.031633, 36.904261)"><g><path d="M 4.421875 -2.484375 C 2.097656 -4.554688 0.9375 -7.207031 0.9375 -10.4375 C 0.9375 -13.675781 2.144531 -16.335938 4.5625 -18.421875 C 6.988281 -20.503906 9.984375 -21.546875 13.546875 -21.546875 C 17.054688 -21.546875 20.015625 -20.5 22.421875 -18.40625 C 24.828125 -16.3125 26.03125 -13.65625 26.03125 -10.4375 C 26.03125 -7.226562 24.851562 -4.582031 22.5 -2.5 C 20.144531 -0.425781 17.160156 0.609375 13.546875 0.609375 C 9.796875 0.609375 6.753906 -0.421875 4.421875 -2.484375 Z M 10.015625 -13.984375 C 9.078125 -13.066406 8.609375 -11.882812 8.609375 -10.4375 C 8.609375 -9 9.054688 -7.820312 9.953125 -6.90625 C 10.847656 -6 12.03125 -5.546875 13.5 -5.546875 C 14.914062 -5.546875 16.078125 -6.007812 16.984375 -6.9375 C 17.898438 -7.863281 18.359375 -9.03125 18.359375 -10.4375 C 18.359375 -11.882812 17.890625 -13.066406 16.953125 -13.984375 C 16.015625 -14.910156 14.863281 -15.375 13.5 -15.375 C 12.113281 -15.375 10.953125 -14.910156 10.015625 -13.984375 Z M 10.015625 -13.984375 "/></g></g></g><g fill="#382920" fill-opacity="1"><g transform="translate(68.1388, 36.904261)"><g><path d="M 3.875 -2.59375 C 1.914062 -4.726562 0.9375 -7.34375 0.9375 -10.4375 C 0.9375 -13.539062 1.914062 -16.164062 3.875 -18.3125 C 5.832031 -20.46875 8.320312 -21.546875 11.34375 -21.546875 C 14.113281 -21.546875 16.398438 -20.675781 18.203125 -18.9375 L 18.203125 -35.078125 L 25.421875 -35.078125 L 25.421875 0 L 18.28125 0 L 18.28125 -2.359375 L 18.203125 -2.359375 C 16.398438 -0.378906 14.113281 0.609375 11.34375 0.609375 C 8.320312 0.609375 5.832031 -0.457031 3.875 -2.59375 Z M 10.015625 -13.984375 C 9.078125 -13.066406 8.609375 -11.882812 8.609375 -10.4375 C 8.609375 -9 9.054688 -7.820312 9.953125 -6.90625 C 10.847656 -6 12.03125 -5.546875 13.5 -5.546875 C 14.914062 -5.546875 16.078125 -6.007812 16.984375 -6.9375 C 17.898438 -7.863281 18.359375 -9.03125 18.359375 -10.4375 C 18.359375 -11.882812 17.890625 -13.066406 16.953125 -13.984375 C 16.015625 -14.910156 14.863281 -15.375 13.5 -15.375 C 12.113281 -15.375 10.953125 -14.910156 10.015625 -13.984375 Z M 10.015625 -13.984375 "/></g></g></g><g fill="#382920" fill-opacity="1"><g transform="translate(93.143393, 36.904261)"><g><path d="M 30.265625 0 L 28.6875 -19.953125 L 28.46875 -19.953125 L 21.578125 -0.203125 L 17.015625 -0.203125 L 10.125 -19.953125 L 9.90625 -19.953125 L 8.328125 0 L 0.65625 0 L 3.671875 -33.65625 L 11.828125 -33.65625 L 19.296875 -14.234375 L 26.765625 -33.65625 L 34.921875 -33.65625 L 37.9375 0 Z M 30.265625 0 "/></g></g></g><g fill="#382920" fill-opacity="1"><g transform="translate(128.87631, 36.904261)"><g><path d="M 3.875 -2.59375 C 1.914062 -4.726562 0.9375 -7.34375 0.9375 -10.4375 C 0.9375 -13.539062 1.914062 -16.164062 3.875 -18.3125 C 5.832031 -20.46875 8.320312 -21.546875 11.34375 -21.546875 C 14.113281 -21.546875 16.398438 -20.675781 18.203125 -18.9375 L 18.203125 -20.921875 L 25.421875 -20.921875 L 25.421875 0 L 18.28125 0 L 18.28125 -2.359375 L 18.203125 -2.359375 C 16.398438 -0.378906 14.113281 0.609375 11.34375 0.609375 C 8.320312 0.609375 5.832031 -0.457031 3.875 -2.59375 Z M 10.015625 -13.984375 C 9.078125 -13.066406 8.609375 -11.882812 8.609375 -10.4375 C 8.609375 -9 9.054688 -7.820312 9.953125 -6.90625 C 10.847656 -6 12.03125 -5.546875 13.5 -5.546875 C 14.914062 -5.546875 16.078125 -6.007812 16.984375 -6.9375 C 17.898438 -7.863281 18.359375 -9.03125 18.359375 -10.4375 C 18.359375 -11.882812 17.890625 -13.066406 16.953125 -13.984375 C 16.015625 -14.910156 14.863281 -15.375 13.5 -15.375 C 12.113281 -15.375 10.953125 -14.910156 10.015625 -13.984375 Z M 10.015625 -13.984375 "/></g></g></g><g fill="#382920" fill-opacity="1"><g transform="translate(153.595284, 36.904261)"><g><path d="M 3.671875 -20.921875 L 3.671875 -28.71875 L 10.890625 -28.71875 L 10.890625 -20.921875 L 15.296875 -20.921875 L 15.296875 -15.421875 L 10.890625 -15.421875 L 10.890625 -8.765625 C 10.890625 -6.835938 11.4375 -5.875 12.53125 -5.875 C 12.800781 -5.875 13.082031 -5.925781 13.375 -6.03125 C 13.675781 -6.144531 13.910156 -6.253906 14.078125 -6.359375 L 14.3125 -6.53125 L 16.109375 -0.6875 C 14.566406 0.175781 12.800781 0.609375 10.8125 0.609375 C 9.445312 0.609375 8.273438 0.375 7.296875 -0.09375 C 6.316406 -0.570312 5.578125 -1.210938 5.078125 -2.015625 C 4.578125 -2.816406 4.21875 -3.660156 4 -4.546875 C 3.78125 -5.429688 3.671875 -6.378906 3.671875 -7.390625 L 3.671875 -15.421875 L 0.65625 -15.421875 L 0.65625 -20.921875 Z M 3.671875 -20.921875 "/></g></g></g><g fill="#382920" fill-opacity="1"><g transform="translate(166.851754, 36.904261)"><g><path d="M 13.578125 -15.625 C 12.222656 -15.625 11.054688 -15.117188 10.078125 -14.109375 C 9.097656 -13.109375 8.609375 -11.898438 8.609375 -10.484375 C 8.609375 -9.046875 9.097656 -7.820312 10.078125 -6.8125 C 11.054688 -5.800781 12.222656 -5.296875 13.578125 -5.296875 C 14.234375 -5.296875 14.851562 -5.378906 15.4375 -5.546875 C 16.019531 -5.710938 16.453125 -5.875 16.734375 -6.03125 L 17.09375 -6.28125 L 19.546875 -1.265625 C 19.347656 -1.128906 19.078125 -0.957031 18.734375 -0.75 C 18.398438 -0.550781 17.628906 -0.273438 16.421875 0.078125 C 15.210938 0.429688 13.914062 0.609375 12.53125 0.609375 C 9.457031 0.609375 6.753906 -0.46875 4.421875 -2.625 C 2.097656 -4.789062 0.9375 -7.382812 0.9375 -10.40625 C 0.9375 -13.445312 2.097656 -16.0625 4.421875 -18.25 C 6.753906 -20.445312 9.457031 -21.546875 12.53125 -21.546875 C 13.914062 -21.546875 15.191406 -21.378906 16.359375 -21.046875 C 17.523438 -20.722656 18.351562 -20.398438 18.84375 -20.078125 L 19.546875 -19.578125 L 17.09375 -14.640625 C 16.195312 -15.296875 15.023438 -15.625 13.578125 -15.625 Z M 13.578125 -15.625 "/></g></g></g><g fill="#382920" fill-opacity="1"><g transform="translate(184.024264, 36.904261)"><g><path d="M 2.453125 0 L 2.453125 -35.078125 L 9.671875 -35.078125 L 9.671875 -18.71875 L 9.75 -18.71875 C 11.625 -20.601562 13.625 -21.546875 15.75 -21.546875 C 16.78125 -21.546875 17.804688 -21.40625 18.828125 -21.125 C 19.847656 -20.851562 20.828125 -20.429688 21.765625 -19.859375 C 22.703125 -19.296875 23.460938 -18.488281 24.046875 -17.4375 C 24.628906 -16.394531 24.921875 -15.179688 24.921875 -13.796875 L 24.921875 0 L 17.703125 0 L 17.703125 -11.828125 C 17.703125 -12.921875 17.351562 -13.875 16.65625 -14.6875 C 15.96875 -15.5 15.066406 -15.90625 13.953125 -15.90625 C 12.867188 -15.90625 11.882812 -15.484375 11 -14.640625 C 10.113281 -13.796875 9.671875 -12.859375 9.671875 -11.828125 L 9.671875 0 Z M 2.453125 0 "/></g></g></g></g></g></svg>