<svg xmlns="http://www.w3.org/2000/svg" xmlns:xlink="http://www.w3.org/1999/xlink" width="1000" zoomAndPan="magnify" viewBox="0 0 750 30.000001" height="40" preserveAspectRatio="xMidYMid meet" version="1.0"><defs><clipPath id="815991e8ef"><path d="M 12.097656 0 L 737.902344 0 L 737.902344 29.03125 L 12.097656 29.03125 Z M 12.097656 0 " clip-rule="nonzero"/></clipPath><clipPath id="f6dfeeb882"><path d="M 0.0976562 0 L 15.109375 0 L 15.109375 29.03125 L 0.0976562 29.03125 Z M 0.0976562 0 " clip-rule="nonzero"/></clipPath><clipPath id="0c745193e4"><path d="M 0.0976562 0 L 15.109375 0 L 15.109375 29.03125 L 0.0976562 29.03125 Z M 0.0976562 0 " clip-rule="nonzero"/></clipPath><clipPath id="684820a8dc"><rect x="0" width="16" y="0" height="30"/></clipPath><clipPath id="084d868abb"><path d="M 88.914062 0 L 103.925781 0 L 103.925781 29.03125 L 88.914062 29.03125 Z M 88.914062 0 " clip-rule="nonzero"/></clipPath><clipPath id="24e32f74f2"><path d="M 0.914062 0 L 15.925781 0 L 15.925781 29.03125 L 0.914062 29.03125 Z M 0.914062 0 " clip-rule="nonzero"/></clipPath><clipPath id="10b15658d8"><rect x="0" width="16" y="0" height="30"/></clipPath><clipPath id="b524dbc4e9"><path d="M 59.308594 0 L 74.320312 0 L 74.320312 29.03125 L 59.308594 29.03125 Z M 59.308594 0 " clip-rule="nonzero"/></clipPath><clipPath id="49b03631d3"><path d="M 0.308594 0 L 15.320312 0 L 15.320312 29.03125 L 0.308594 29.03125 Z M 0.308594 0 " clip-rule="nonzero"/></clipPath><clipPath id="da09adf5c8"><rect x="0" width="16" y="0" height="30"/></clipPath><clipPath id="234d56a7da"><path d="M 29.703125 0 L 44.714844 0 L 44.714844 29.03125 L 29.703125 29.03125 Z M 29.703125 0 " clip-rule="nonzero"/></clipPath><clipPath id="dec1924512"><path d="M 0.703125 0 L 15.714844 0 L 15.714844 29.03125 L 0.703125 29.03125 Z M 0.703125 0 " clip-rule="nonzero"/></clipPath><clipPath id="e8133f84f4"><rect x="0" width="16" y="0" height="30"/></clipPath><clipPath id="b0798e219a"><path d="M 118.519531 0 L 133.53125 0 L 133.53125 29.03125 L 118.519531 29.03125 Z M 118.519531 0 " clip-rule="nonzero"/></clipPath><clipPath id="443d13fa46"><path d="M 0.519531 0 L 15.53125 0 L 15.53125 29.03125 L 0.519531 29.03125 Z M 0.519531 0 " clip-rule="nonzero"/></clipPath><clipPath id="b51d85a931"><rect x="0" width="16" y="0" height="30"/></clipPath><clipPath id="02cd73bab0"><path d="M 148.226562 0 L 163.238281 0 L 163.238281 29.03125 L 148.226562 29.03125 Z M 148.226562 0 " clip-rule="nonzero"/></clipPath><clipPath id="555e8b31d9"><path d="M 0.226562 0 L 15.238281 0 L 15.238281 29.03125 L 0.226562 29.03125 Z M 0.226562 0 " clip-rule="nonzero"/></clipPath><clipPath id="8b7f66de50"><rect x="0" width="16" y="0" height="30"/></clipPath><clipPath id="03599884b2"><path d="M 178.117188 0 L 193.128906 0 L 193.128906 29.03125 L 178.117188 29.03125 Z M 178.117188 0 " clip-rule="nonzero"/></clipPath><clipPath id="6bb3c7e9d6"><path d="M 0.117188 0 L 15.128906 0 L 15.128906 29.03125 L 0.117188 29.03125 Z M 0.117188 0 " clip-rule="nonzero"/></clipPath><clipPath id="377a13771c"><rect x="0" width="16" y="0" height="30"/></clipPath><clipPath id="c03f4ff600"><path d="M 473.914062 0 L 488.929688 0 L 488.929688 29.03125 L 473.914062 29.03125 Z M 473.914062 0 " clip-rule="nonzero"/></clipPath><clipPath id="4d03ca0969"><path d="M 0.914062 0 L 15.929688 0 L 15.929688 29.03125 L 0.914062 29.03125 Z M 0.914062 0 " clip-rule="nonzero"/></clipPath><clipPath id="ddc59418e9"><rect x="0" width="16" y="0" height="30"/></clipPath><clipPath id="37368d18e1"><path d="M 562.730469 0 L 577.746094 0 L 577.746094 29.03125 L 562.730469 29.03125 Z M 562.730469 0 " clip-rule="nonzero"/></clipPath><clipPath id="2ffa4bb561"><path d="M 0.730469 0 L 15.746094 0 L 15.746094 29.03125 L 0.730469 29.03125 Z M 0.730469 0 " clip-rule="nonzero"/></clipPath><clipPath id="629b8e495a"><rect x="0" width="16" y="0" height="30"/></clipPath><clipPath id="4f19c0057c"><path d="M 444.308594 0 L 459.324219 0 L 459.324219 29.03125 L 444.308594 29.03125 Z M 444.308594 0 " clip-rule="nonzero"/></clipPath><clipPath id="86c01359f0"><path d="M 0.308594 0 L 15.324219 0 L 15.324219 29.03125 L 0.308594 29.03125 Z M 0.308594 0 " clip-rule="nonzero"/></clipPath><clipPath id="4cab77c924"><rect x="0" width="16" y="0" height="30"/></clipPath><clipPath id="9dde5fd613"><path d="M 533.125 0 L 548.140625 0 L 548.140625 29.03125 L 533.125 29.03125 Z M 533.125 0 " clip-rule="nonzero"/></clipPath><clipPath id="ebf39502b6"><path d="M 0.125 0 L 15.140625 0 L 15.140625 29.03125 L 0.125 29.03125 Z M 0.125 0 " clip-rule="nonzero"/></clipPath><clipPath id="542b222f1f"><rect x="0" width="16" y="0" height="30"/></clipPath><clipPath id="0bb75db659"><path d="M 503.519531 0 L 518.535156 0 L 518.535156 29.03125 L 503.519531 29.03125 Z M 503.519531 0 " clip-rule="nonzero"/></clipPath><clipPath id="bfc65e77b5"><path d="M 0.519531 0 L 15.535156 0 L 15.535156 29.03125 L 0.519531 29.03125 Z M 0.519531 0 " clip-rule="nonzero"/></clipPath><clipPath id="b9bb97cac3"><rect x="0" width="16" y="0" height="30"/></clipPath><clipPath id="ad9f319d32"><path d="M 592.335938 0 L 607.351562 0 L 607.351562 29.03125 L 592.335938 29.03125 Z M 592.335938 0 " clip-rule="nonzero"/></clipPath><clipPath id="6769fb2b38"><path d="M 0.335938 0 L 15.351562 0 L 15.351562 29.03125 L 0.335938 29.03125 Z M 0.335938 0 " clip-rule="nonzero"/></clipPath><clipPath id="4138aa8656"><rect x="0" width="16" y="0" height="30"/></clipPath><clipPath id="520239eeda"><path d="M 622.046875 0 L 637.058594 0 L 637.058594 29.03125 L 622.046875 29.03125 Z M 622.046875 0 " clip-rule="nonzero"/></clipPath><clipPath id="763db5a934"><path d="M 0.046875 0 L 15.058594 0 L 15.058594 29.03125 L 0.046875 29.03125 Z M 0.046875 0 " clip-rule="nonzero"/></clipPath><clipPath id="d63c296d42"><rect x="0" width="16" y="0" height="30"/></clipPath><clipPath id="24455b0632"><path d="M 651.933594 0 L 666.949219 0 L 666.949219 29.03125 L 651.933594 29.03125 Z M 651.933594 0 " clip-rule="nonzero"/></clipPath><clipPath id="73e897a1b3"><path d="M 0.933594 0 L 15.949219 0 L 15.949219 29.03125 L 0.933594 29.03125 Z M 0.933594 0 " clip-rule="nonzero"/></clipPath><clipPath id="ed6336fa85"><rect x="0" width="16" y="0" height="30"/></clipPath><clipPath id="4c605218a4"><path d="M 710.890625 0 L 725.902344 0 L 725.902344 29.03125 L 710.890625 29.03125 Z M 710.890625 0 " clip-rule="nonzero"/></clipPath><clipPath id="6e4fe784d8"><path d="M 0.890625 0 L 15.902344 0 L 15.902344 29.03125 L 0.890625 29.03125 Z M 0.890625 0 " clip-rule="nonzero"/></clipPath><clipPath id="f9aa3f89de"><rect x="0" width="16" y="0" height="30"/></clipPath><clipPath id="eb4fc426fa"><path d="M 681.285156 0 L 696.296875 0 L 696.296875 29.03125 L 681.285156 29.03125 Z M 681.285156 0 " clip-rule="nonzero"/></clipPath><clipPath id="8245f48cfc"><path d="M 0.285156 0 L 15.296875 0 L 15.296875 29.03125 L 0.285156 29.03125 Z M 0.285156 0 " clip-rule="nonzero"/></clipPath><clipPath id="b69bbb6b88"><rect x="0" width="16" y="0" height="30"/></clipPath><clipPath id="067e5da1f2"><path d="M 237.070312 0 L 252.085938 0 L 252.085938 29.03125 L 237.070312 29.03125 Z M 237.070312 0 " clip-rule="nonzero"/></clipPath><clipPath id="727317d406"><path d="M 0.0703125 0 L 15.085938 0 L 15.085938 29.03125 L 0.0703125 29.03125 Z M 0.0703125 0 " clip-rule="nonzero"/></clipPath><clipPath id="3db1fab161"><rect x="0" width="16" y="0" height="30"/></clipPath><clipPath id="cc8f1e59fc"><path d="M 325.886719 0 L 340.902344 0 L 340.902344 29.03125 L 325.886719 29.03125 Z M 325.886719 0 " clip-rule="nonzero"/></clipPath><clipPath id="17f8f3097c"><path d="M 0.886719 0 L 15.902344 0 L 15.902344 29.03125 L 0.886719 29.03125 Z M 0.886719 0 " clip-rule="nonzero"/></clipPath><clipPath id="5c26562936"><rect x="0" width="16" y="0" height="30"/></clipPath><clipPath id="28293c4dd1"><path d="M 207.464844 0 L 222.480469 0 L 222.480469 29.03125 L 207.464844 29.03125 Z M 207.464844 0 " clip-rule="nonzero"/></clipPath><clipPath id="057e8a77bb"><path d="M 0.464844 0 L 15.480469 0 L 15.480469 29.03125 L 0.464844 29.03125 Z M 0.464844 0 " clip-rule="nonzero"/></clipPath><clipPath id="21f4b7e787"><rect x="0" width="16" y="0" height="30"/></clipPath><clipPath id="2f2a49adbb"><path d="M 296.28125 0 L 311.296875 0 L 311.296875 29.03125 L 296.28125 29.03125 Z M 296.28125 0 " clip-rule="nonzero"/></clipPath><clipPath id="2dddc99510"><path d="M 0.28125 0 L 15.296875 0 L 15.296875 29.03125 L 0.28125 29.03125 Z M 0.28125 0 " clip-rule="nonzero"/></clipPath><clipPath id="42f338d562"><rect x="0" width="16" y="0" height="30"/></clipPath><clipPath id="789c209d37"><path d="M 266.675781 0 L 281.691406 0 L 281.691406 29.03125 L 266.675781 29.03125 Z M 266.675781 0 " clip-rule="nonzero"/></clipPath><clipPath id="1364ac23d4"><path d="M 0.675781 0 L 15.691406 0 L 15.691406 29.03125 L 0.675781 29.03125 Z M 0.675781 0 " clip-rule="nonzero"/></clipPath><clipPath id="57e02be6c5"><rect x="0" width="16" y="0" height="30"/></clipPath><clipPath id="1dc34cc289"><path d="M 355.492188 0 L 370.507812 0 L 370.507812 29.03125 L 355.492188 29.03125 Z M 355.492188 0 " clip-rule="nonzero"/></clipPath><clipPath id="b4c6cd7ea0"><path d="M 0.492188 0 L 15.507812 0 L 15.507812 29.03125 L 0.492188 29.03125 Z M 0.492188 0 " clip-rule="nonzero"/></clipPath><clipPath id="0b4c80b3f3"><rect x="0" width="16" y="0" height="30"/></clipPath><clipPath id="c979c3b2c7"><path d="M 385.203125 0 L 400.214844 0 L 400.214844 29.03125 L 385.203125 29.03125 Z M 385.203125 0 " clip-rule="nonzero"/></clipPath><clipPath id="26c61ccd7e"><path d="M 0.203125 0 L 15.214844 0 L 15.214844 29.03125 L 0.203125 29.03125 Z M 0.203125 0 " clip-rule="nonzero"/></clipPath><clipPath id="be1cc7d4a9"><rect x="0" width="16" y="0" height="30"/></clipPath><clipPath id="0924cb5c7c"><path d="M 415.089844 0 L 430.105469 0 L 430.105469 29.03125 L 415.089844 29.03125 Z M 415.089844 0 " clip-rule="nonzero"/></clipPath><clipPath id="ac8c9ae3b0"><path d="M 0.0898438 0 L 15.105469 0 L 15.105469 29.03125 L 0.0898438 29.03125 Z M 0.0898438 0 " clip-rule="nonzero"/></clipPath><clipPath id="da3da32c18"><rect x="0" width="16" y="0" height="30"/></clipPath><clipPath id="81f481bb44"><rect x="0" width="726" y="0" height="30"/></clipPath></defs><g clip-path="url(#815991e8ef)"><g transform="matrix(1, 0, 0, 1, 12, 0.000000000000005692)"><g clip-path="url(#81f481bb44)"><g clip-path="url(#f6dfeeb882)"><g transform="matrix(1, 0, 0, 1, 0, 0.000000000000005692)"><g clip-path="url(#684820a8dc)"><g clip-path="url(#0c745193e4)"><path fill="#ffd230" d="M 0.0976562 0 L 15.109375 0 L 15.109375 29.027344 L 0.0976562 29.027344 Z M 0.0976562 0 " fill-opacity="1" fill-rule="nonzero"/></g></g></g></g><g clip-path="url(#084d868abb)"><g transform="matrix(1, 0, 0, 1, 88, 0.000000000000005692)"><g clip-path="url(#10b15658d8)"><g clip-path="url(#24e32f74f2)"><path fill="#ffd230" d="M 0.914062 0 L 15.925781 0 L 15.925781 29.027344 L 0.914062 29.027344 Z M 0.914062 0 " fill-opacity="1" fill-rule="nonzero"/></g></g></g></g><g clip-path="url(#b524dbc4e9)"><g transform="matrix(1, 0, 0, 1, 59, 0.000000000000005692)"><g clip-path="url(#da09adf5c8)"><g clip-path="url(#49b03631d3)"><path fill="#ffd230" d="M 0.308594 0 L 15.320312 0 L 15.320312 29.027344 L 0.308594 29.027344 Z M 0.308594 0 " fill-opacity="1" fill-rule="nonzero"/></g></g></g></g><g clip-path="url(#234d56a7da)"><g transform="matrix(1, 0, 0, 1, 29, 0.000000000000005692)"><g clip-path="url(#e8133f84f4)"><g clip-path="url(#dec1924512)"><path fill="#ffd230" d="M 0.703125 0 L 15.714844 0 L 15.714844 29.027344 L 0.703125 29.027344 Z M 0.703125 0 " fill-opacity="1" fill-rule="nonzero"/></g></g></g></g><g clip-path="url(#b0798e219a)"><g transform="matrix(1, 0, 0, 1, 118, 0.000000000000005692)"><g clip-path="url(#b51d85a931)"><g clip-path="url(#443d13fa46)"><path fill="#ffd230" d="M 0.519531 0 L 15.53125 0 L 15.53125 29.027344 L 0.519531 29.027344 Z M 0.519531 0 " fill-opacity="1" fill-rule="nonzero"/></g></g></g></g><g clip-path="url(#02cd73bab0)"><g transform="matrix(1, 0, 0, 1, 148, 0.000000000000005692)"><g clip-path="url(#8b7f66de50)"><g clip-path="url(#555e8b31d9)"><path fill="#ffd230" d="M 0.226562 0 L 15.238281 0 L 15.238281 29.027344 L 0.226562 29.027344 Z M 0.226562 0 " fill-opacity="1" fill-rule="nonzero"/></g></g></g></g><g clip-path="url(#03599884b2)"><g transform="matrix(1, 0, 0, 1, 178, 0.000000000000005692)"><g clip-path="url(#377a13771c)"><g clip-path="url(#6bb3c7e9d6)"><path fill="#ffd230" d="M 0.117188 0 L 15.128906 0 L 15.128906 29.027344 L 0.117188 29.027344 Z M 0.117188 0 " fill-opacity="1" fill-rule="nonzero"/></g></g></g></g><g clip-path="url(#c03f4ff600)"><g transform="matrix(1, 0, 0, 1, 473, 0.000000000000005692)"><g clip-path="url(#ddc59418e9)"><g clip-path="url(#4d03ca0969)"><path fill="#ffd230" d="M 0.914062 0 L 15.929688 0 L 15.929688 29.027344 L 0.914062 29.027344 Z M 0.914062 0 " fill-opacity="1" fill-rule="nonzero"/></g></g></g></g><g clip-path="url(#37368d18e1)"><g transform="matrix(1, 0, 0, 1, 562, 0.000000000000005692)"><g clip-path="url(#629b8e495a)"><g clip-path="url(#2ffa4bb561)"><path fill="#ffd230" d="M 0.730469 0 L 15.746094 0 L 15.746094 29.027344 L 0.730469 29.027344 Z M 0.730469 0 " fill-opacity="1" fill-rule="nonzero"/></g></g></g></g><g clip-path="url(#4f19c0057c)"><g transform="matrix(1, 0, 0, 1, 444, 0.000000000000005692)"><g clip-path="url(#4cab77c924)"><g clip-path="url(#86c01359f0)"><path fill="#ffd230" d="M 0.308594 0 L 15.324219 0 L 15.324219 29.027344 L 0.308594 29.027344 Z M 0.308594 0 " fill-opacity="1" fill-rule="nonzero"/></g></g></g></g><g clip-path="url(#9dde5fd613)"><g transform="matrix(1, 0, 0, 1, 533, 0.000000000000005692)"><g clip-path="url(#542b222f1f)"><g clip-path="url(#ebf39502b6)"><path fill="#ffd230" d="M 0.125 0 L 15.140625 0 L 15.140625 29.027344 L 0.125 29.027344 Z M 0.125 0 " fill-opacity="1" fill-rule="nonzero"/></g></g></g></g><g clip-path="url(#0bb75db659)"><g transform="matrix(1, 0, 0, 1, 503, 0.000000000000005692)"><g clip-path="url(#b9bb97cac3)"><g clip-path="url(#bfc65e77b5)"><path fill="#ffd230" d="M 0.519531 0 L 15.535156 0 L 15.535156 29.027344 L 0.519531 29.027344 Z M 0.519531 0 " fill-opacity="1" fill-rule="nonzero"/></g></g></g></g><g clip-path="url(#ad9f319d32)"><g transform="matrix(1, 0, 0, 1, 592, 0.000000000000005692)"><g clip-path="url(#4138aa8656)"><g clip-path="url(#6769fb2b38)"><path fill="#ffd230" d="M 0.335938 0 L 15.351562 0 L 15.351562 29.027344 L 0.335938 29.027344 Z M 0.335938 0 " fill-opacity="1" fill-rule="nonzero"/></g></g></g></g><g clip-path="url(#520239eeda)"><g transform="matrix(1, 0, 0, 1, 622, 0.000000000000005692)"><g clip-path="url(#d63c296d42)"><g clip-path="url(#763db5a934)"><path fill="#ffd230" d="M 0.046875 0 L 15.058594 0 L 15.058594 29.027344 L 0.046875 29.027344 Z M 0.046875 0 " fill-opacity="1" fill-rule="nonzero"/></g></g></g></g><g clip-path="url(#24455b0632)"><g transform="matrix(1, 0, 0, 1, 651, 0.000000000000005692)"><g clip-path="url(#ed6336fa85)"><g clip-path="url(#73e897a1b3)"><path fill="#ffd230" d="M 0.933594 0 L 15.949219 0 L 15.949219 29.027344 L 0.933594 29.027344 Z M 0.933594 0 " fill-opacity="1" fill-rule="nonzero"/></g></g></g></g><g clip-path="url(#4c605218a4)"><g transform="matrix(1, 0, 0, 1, 710, 0.000000000000005692)"><g clip-path="url(#f9aa3f89de)"><g clip-path="url(#6e4fe784d8)"><path fill="#ffd230" d="M 0.890625 0 L 15.902344 0 L 15.902344 29.027344 L 0.890625 29.027344 Z M 0.890625 0 " fill-opacity="1" fill-rule="nonzero"/></g></g></g></g><g clip-path="url(#eb4fc426fa)"><g transform="matrix(1, 0, 0, 1, 681, 0.000000000000005692)"><g clip-path="url(#b69bbb6b88)"><g clip-path="url(#8245f48cfc)"><path fill="#ffd230" d="M 0.285156 0 L 15.296875 0 L 15.296875 29.027344 L 0.285156 29.027344 Z M 0.285156 0 " fill-opacity="1" fill-rule="nonzero"/></g></g></g></g><g clip-path="url(#067e5da1f2)"><g transform="matrix(1, 0, 0, 1, 237, 0.000000000000005692)"><g clip-path="url(#3db1fab161)"><g clip-path="url(#727317d406)"><path fill="#ffd230" d="M 0.0703125 0 L 15.085938 0 L 15.085938 29.027344 L 0.0703125 29.027344 Z M 0.0703125 0 " fill-opacity="1" fill-rule="nonzero"/></g></g></g></g><g clip-path="url(#cc8f1e59fc)"><g transform="matrix(1, 0, 0, 1, 325, 0.000000000000005692)"><g clip-path="url(#5c26562936)"><g clip-path="url(#17f8f3097c)"><path fill="#ffd230" d="M 0.886719 0 L 15.902344 0 L 15.902344 29.027344 L 0.886719 29.027344 Z M 0.886719 0 " fill-opacity="1" fill-rule="nonzero"/></g></g></g></g><g clip-path="url(#28293c4dd1)"><g transform="matrix(1, 0, 0, 1, 207, 0.000000000000005692)"><g clip-path="url(#21f4b7e787)"><g clip-path="url(#057e8a77bb)"><path fill="#ffd230" d="M 0.464844 0 L 15.480469 0 L 15.480469 29.027344 L 0.464844 29.027344 Z M 0.464844 0 " fill-opacity="1" fill-rule="nonzero"/></g></g></g></g><g clip-path="url(#2f2a49adbb)"><g transform="matrix(1, 0, 0, 1, 296, 0.000000000000005692)"><g clip-path="url(#42f338d562)"><g clip-path="url(#2dddc99510)"><path fill="#ffd230" d="M 0.28125 0 L 15.296875 0 L 15.296875 29.027344 L 0.28125 29.027344 Z M 0.28125 0 " fill-opacity="1" fill-rule="nonzero"/></g></g></g></g><g clip-path="url(#789c209d37)"><g transform="matrix(1, 0, 0, 1, 266, 0.000000000000005692)"><g clip-path="url(#57e02be6c5)"><g clip-path="url(#1364ac23d4)"><path fill="#ffd230" d="M 0.675781 0 L 15.691406 0 L 15.691406 29.027344 L 0.675781 29.027344 Z M 0.675781 0 " fill-opacity="1" fill-rule="nonzero"/></g></g></g></g><g clip-path="url(#1dc34cc289)"><g transform="matrix(1, 0, 0, 1, 355, 0.000000000000005692)"><g clip-path="url(#0b4c80b3f3)"><g clip-path="url(#b4c6cd7ea0)"><path fill="#ffd230" d="M 0.492188 0 L 15.507812 0 L 15.507812 29.027344 L 0.492188 29.027344 Z M 0.492188 0 " fill-opacity="1" fill-rule="nonzero"/></g></g></g></g><g clip-path="url(#c979c3b2c7)"><g transform="matrix(1, 0, 0, 1, 385, 0.000000000000005692)"><g clip-path="url(#be1cc7d4a9)"><g clip-path="url(#26c61ccd7e)"><path fill="#ffd230" d="M 0.203125 0 L 15.214844 0 L 15.214844 29.027344 L 0.203125 29.027344 Z M 0.203125 0 " fill-opacity="1" fill-rule="nonzero"/></g></g></g></g><g clip-path="url(#0924cb5c7c)"><g transform="matrix(1, 0, 0, 1, 415, 0.000000000000005692)"><g clip-path="url(#da3da32c18)"><g clip-path="url(#ac8c9ae3b0)"><path fill="#ffd230" d="M 0.0898438 0 L 15.105469 0 L 15.105469 29.027344 L 0.0898438 29.027344 Z M 0.0898438 0 " fill-opacity="1" fill-rule="nonzero"/></g></g></g></g></g></g></g></svg>